<svg viewBox="0 0 215 103" fill="none" xmlns="http://www.w3.org/2000/svg">
  <g clip-path="url(#clip0)">
    <path fill="#000" d="M0 0h215v103H0z"/>
    <path fill="url(#paint0_linear)" d="M0 0h215v62H0z"/>
    <g filter="url(#filter0_d)">
      <path fill-rule="evenodd" clip-rule="evenodd" d="M143 54l-.4 3H73.4l-.3-3h69.8zm0-2a40 40 0 000-3H73a35.5 35.5 0 000 3h70zm-.6-7l.4 3H73.2c0-1 .2-2 .4-3h68.8zm0-.5l-1-3.5H74.6l-1 3.5h68.7zm-3-8.5c.7 1.4 1.4 3 1.9 4.5H74.7c.5-1.6 1.2-3 1.9-4.5h62.8zm0-.3a35 35 0 00-62.7 0h62.6zM108 86.5A35 35 0 0174 60h68a35 35 0 01-34 26.4z" fill="url(#paint1_linear)"/>
    </g>
    <path fill="#000" d="M0 62h215v41H0z"/>
    <g filter="url(#filter1_d)" stroke="#A61FBC">
      <path stroke-width=".3" d="M215 73.4l-64-11.3"/>
      <path stroke-width=".3" d="M0 73.9l63.8-12.6"/>
      <path stroke-width=".5" d="M194.1 93.8l-55.4-32"/>
      <path stroke-width=".5" d="M18.9 93.8l55.4-32"/>
      <path stroke-width=".6" d="M155.8 93.4l-27-32.2"/>
      <path stroke-width=".6" d="M59.7 93.7l27-32.2"/>
      <path stroke-width=".8" d="M129.8 93.1l-11.6-32"/>
      <path stroke-width=".8" d="M84.8 93.9L96.4 62"/>
      <path d="M107.5 93V62"/>
    </g>
    <g filter="url(#filter2_d)" stroke="#A61FBC">
      <path stroke-width=".8" d="M0 80.6h215"/>
      <path d="M0 93.5h215"/>
      <path stroke-width=".5" d="M0 73.8h215"/>
      <path stroke-width=".4" d="M0 68.8h215"/>
      <path stroke-width=".3" d="M0 65.8h215"/>
      <path stroke-width=".3" d="M0 63.9h215"/>
    </g>
    <g filter="url(#filter3_d)">
      <path d="M44 80.5h-3.6V79H44v1.5zm-.2-3.9H29.6v-1.4h12c1 0 1.8.5 2.2 1.4zm.2 2H29.6V77H44v1.5zm0 3.3v.5H29.6V81H44v1zm-.2 1c-.4 1-1.1 1.4-2.2 1.4h-12V83h14.2zm-10.6-2.4h-3.6V79h3.6v1.5zm0 5.7h-3.6v-1.4h3.6v1.4zm0 2h-3.6v-1.5h3.6v1.5zm0 1.9h-3.6v-1.5h3.6v1.5zm0 1.9h-3.6v-1.4h3.6V92zm20.7-15.4h-5.7l.6-1.4h4.6l.5 1.4zm.8 2h-7.2L48 77h6.1l.6 1.5zm1.5 3.8h-4l-.6-1.4h4l.6 1.4zm-.7-2h-4.1l-.3-.7-.3.8h-4.1l.6-1.5h7.6l.6 1.5zm1.5 4h-4l-.7-1.5h4.1l.6 1.4zm2.3 5.7h-4l-.6-1.5h4l.6 1.5zM50.6 81l-.6 1.4h-4l.5-1.4h4zM60 92H56l-.6-1.4h4.1l.6 1.4zm-2.3-5.8H44.4l.6-1.4h12.2l.6 1.4zm-8-3.3l-.6 1.4h-4l.5-1.4h4.1zm8.7 5.3H43.6l.6-1.5H58l.5 1.5zm-11 .4l-.6 1.5h-4l.5-1.5h4.1zm-.8 2l-.5 1.4H42l.6-1.4h4zm28.5-14h-3.6v-1.4h3.6v1.4zm0 2h-3.6V77h3.6v1.5zm0 1.9h-3.6V79h3.6v1.5zm0 1.9h-3.6V81h3.6v1.4zm0 2h-3.6v-1.5h3.6v1.4zm-9.8-7.8h-4.6v-1.4h3.6l1 1.4zm1.4 2h-6V77h5l1 1.5zm8.4 7.6h-7.7l-1-1.4h4.8l.3.5v-.5h3.6v1.4zm-7-5.7h-7.4V79H67l1 1.5zm2.7 3.8h-4.8l-1-1.4h4.8l1 1.4zm4.3 3.9h-6.3l-1-1.5h7.3v1.5zm-5.7-5.8h-4.8l-.3-.5v.5h-3.6V81h7.7l1 1.4zm5.7 7.7h-5l-1-1.5h6v1.5zm0 1.9h-3.6l-1-1.4h4.6V92zm-10.8-7.7h-3.6V83h3.6v1.4zm0 2h-3.6v-1.5h3.6v1.4zm0 1.9h-3.6v-1.5h3.6v1.5zm0 1.9h-3.6v-1.5h3.6v1.5zm0 1.9h-3.6v-1.4h3.6V92zM91 80.5h-3.6V79H91v1.5zm-.2-3.9H76.6v-1.4h12c1 0 1.8.5 2.2 1.4zm.2 5.8h-3.6V81H91v1.4zm0-3.8H76.6V77H91v1.5zm0 5.7h-3.6V83H91v1.4zm0 2h-3.6v-1.5H91v1.4zm0 1.9h-3.6v-1.5H91v1.5zm-10.8-7.7h-3.6V79h3.6v1.5zm0 1.9h-3.6V81h3.6v1.4zm0 2h-3.6v-1.5h3.6v1.4zM91 89.5v.5H76.6v-1.5H91v1zm-10.8-3.4h-3.6v-1.4h3.6v1.4zm10.6 4.4c-.4 1-1.1 1.4-2.2 1.4h-12v-1.4h14.2zm-10.6-2.4h-3.6v-1.5h3.6v1.5zm25.5-11.6h-13c.4-1 1.1-1.4 2.2-1.4h10.8v1.4zm0 2H92.5v-1-.5h13.2v1.5zm0 3.8H92.5V81h13.2v1.4zm0 2H92.5v-1.5h13.2v1.4zm-9.6-4h-3.6V79H96v1.5zm9.6 9.7H92.5v-1.5h13.2v1.5zM96 86.2h-3.6v-1.4H96v1.4zm9.6 5.8H94.9c-1 0-1.8-.5-2.2-1.4h13V92zM96 88.2h-3.6v-1.5H96v1.5zm29.3-11.6H121l.7-1.4h3.6v1.4zm0 2H120l.7-1.5h4.6v1.5zm0 1.9h-6.2l.7-1.5h5.5v1.5zm0 1.9h-7.1l.7-1.4h6.4v1.4zm0 3.8h-3.6v-1.4h3.6v1.4zm0-1.9h-3.6v-.7l-.4.7h-4l.6-1.4h7.4v1.4zm0 3.9h-3.6v-1.5h3.6v1.5zm0 1.9h-3.6v-1.5h3.6v1.5zm-14-13.5h-4.3v-1.4h3.6l.7 1.4zm9.8 8.2l-.7 1.4h-4l.6-1.4h4zm4.2 7.2h-3.6v-1.4h3.6V92zm-13-13.4H107V77h4.6l.7 1.5zm.9 1.9h-6.2V79h5.5l.7 1.5zm1 1.9H107V81h6.4l.7 1.4zm6 4.3l-.7 1.5h-6.7l-.7-1.5h8zm-4.2-.5H112l-.7-1.4h4l.8 1.4zm-1-1.9h-4l-.4-.7v.7h-3.6V83h7.4l.7 1.4zm4.2 4.3l-.7 1.5H114l-.7-1.5h6.1zm-1 2l-.6 1.4h-2.9l-.7-1.4h4.3zm-7.6-4.4h-3.6v-1.4h3.6v1.4zm0 2h-3.6v-1.5h3.6v1.5zm0 1.9h-3.6v-1.5h3.6v1.5zm0 1.9h-3.6v-1.4h3.6V92zm19.7-15.4h-3.6v-1.4h3.6v1.4zm0 2h-3.6V77h3.6v1.5zm0 1.9h-3.6V79h3.6v1.5zm0 1.9h-3.6V81h3.6v1.4zm0 2h-3.6v-1.5h3.6v1.4zm0 1.8h-3.6v-1.4h3.6v1.4zm0 2h-3.6v-1.5h3.6v1.5zm0 1.9h-3.6v-1.5h3.6v1.5zm0 1.9h-3.6v-1.4h3.6V92zm14.7-15.4h-13c.4-1 1.1-1.4 2.2-1.4H145v1.4zm0 2h-13.2v-1-.5h13.2v1.5zm-9.6 1.9h-3.6V79h3.6v1.5zm0 1.9h-3.6V81h3.6v1.4zm0 2h-3.6v-1.5h3.6v1.4zM145 90h-13.2v-1.5H145v1.5zm-9.6-3.9h-3.6v-1.4h3.6v1.4zM145 92h-10.8c-1.1 0-1.8-.5-2.3-1.4h13V92zm-9.6-3.8h-3.6v-1.5h3.6v1.5zm18.8-11.6h-1.8v-1.4h1.8v1.4zm1.8 2h-3.6V77h3.6v1.5zm0 1.9h-3.6V79h3.6v1.5zm14.6-.5v.5h-3.6V79h3.6v1zm-.1-3.4h-12.9c.5-1 1.2-1.4 2.2-1.4h8.4c1.1 0 1.8.5 2.3 1.4zm.1 2h-13.2v-1-.5h13.2v1.5zm0 7.6h-3.6v-1.4h3.6v1.5zm-.1-5.2c-.5 1-1.2 1.4-2.3 1.4H160c-1 0-1.7-.5-2.2-1.4h12.9zm.1 7.2h-3.6v-1.5h3.6v1.5zm-.1-3.9h-12.9c.5-1 1.2-1.4 2.2-1.4h8.4c1.1 0 1.8.5 2.3 1.4zm-9.5-3.8h-3.5V79h3.5v1.5zm9.6 9.1v.5h-13.1v-1.5h13.1v1zm-9.6-3.4h-3.6v-1-.4h3.6v1.4zm9.5 4.4c-.5 1-1.2 1.4-2.3 1.4H160c-1 0-1.7-.5-2.2-1.4h12.9zm-9.5-2.4h-3.6v-1.5h3.6v1.5zm23-11.6h-11.7c.4-1 1.1-1.4 2.2-1.4h9.6v1.4zm0 2h-12v-1l.1-.5h12v1.5zm1.3 7.6h-3.6v-1.4h3.6v1.4zm-.2-3.8h-13V81H183c1 0 1.8.4 2.2 1.4zm.2 5.8h-3.6v-1.5h3.6v1.5zm0-3.9h-13.2V83h13.1v1.5zm-9.6-3.8h-3.6V79h3.6v1.5zm9.6 9.1v.5h-13.2v-1.5h13.2v1zm-9.6-3.4h-3.6v-1.4h3.6v1.4zm9.4 4.4c-.4 1-1.2 1.4-2.2 1.4h-8.4c-1 0-1.8-.5-2.2-1.4h12.8zm-9.4-2.4h-3.6v-1.5h3.6v1.5z" fill="#fff"/>
    </g>
    <path d="M136.6 43l37 19h-74l37-19z" fill="url(#paint2_linear)"/>
    <path d="M56.6 46l37 16h-74l37-16z" fill="url(#paint3_linear)"/>
    <path d="M72.6 46.3L95 62h-45l22.5-15.8z" fill="url(#paint4_linear)"/>
    <path d="M182.6 46.3L205 62h-45l22.5-15.8z" fill="url(#paint5_linear)"/>
    <path d="M102 52.3l22.2 9.7H80l22-9.8z" fill="url(#paint6_linear)"/>
    <path d="M162 52.3l22.2 9.7H140l22-9.8z" fill="url(#paint7_linear)"/>
    <path d="M32 52.3L54.3 62H10l22-9.8z" fill="url(#paint8_linear)"/>
    <path d="M126 57l16.6 5h-33l16.5-5z" fill="url(#paint9_linear)"/>
    <path d="M56 57l16.6 5h-33L56 57z" fill="url(#paint10_linear)"/>
  </g>
  <defs>
    <linearGradient id="paint0_linear" x1="107.5" y1="0" x2="107.5" y2="62" gradientUnits="userSpaceOnUse">
      <stop stop-color="#181666"/>
      <stop offset="1" stop-color="#D118BF" stop-opacity=".8"/>
    </linearGradient>
    <linearGradient id="paint1_linear" x1="108" y1="16.4" x2="108" y2="86.4" gradientUnits="userSpaceOnUse">
      <stop stop-color="#FF8412"/>
      <stop offset=".7" stop-color="#DB00FF"/>
      <stop offset=".7"/>
    </linearGradient>
    <linearGradient id="paint2_linear" x1="136.6" y1="43" x2="136.6" y2="68.3" gradientUnits="userSpaceOnUse">
      <stop stop-color="#7E1434"/>
      <stop offset="1" stop-color="#2C1FBC"/>
    </linearGradient>
    <linearGradient id="paint3_linear" x1="56.6" y1="46" x2="56.6" y2="67.3" gradientUnits="userSpaceOnUse">
      <stop stop-color="#7E1434"/>
      <stop offset="1" stop-color="#2C1FBC"/>
    </linearGradient>
    <linearGradient id="paint4_linear" x1="72.6" y1="46.3" x2="72.6" y2="67.3" gradientUnits="userSpaceOnUse">
      <stop stop-color="#7E1454"/>
      <stop offset="1" stop-color="#6E1FBC"/>
    </linearGradient>
    <linearGradient id="paint5_linear" x1="182.6" y1="46.3" x2="182.6" y2="67.3" gradientUnits="userSpaceOnUse">
      <stop stop-color="#7E1454"/>
      <stop offset="1" stop-color="#6E1FBC"/>
    </linearGradient>
    <linearGradient id="paint6_linear" x1="102.1" y1="52.3" x2="102.1" y2="65.3" gradientUnits="userSpaceOnUse">
      <stop stop-color="#7E1454"/>
      <stop offset="1" stop-color="#6E1FBC"/>
    </linearGradient>
    <linearGradient id="paint7_linear" x1="162.1" y1="52.3" x2="162.1" y2="65.3" gradientUnits="userSpaceOnUse">
      <stop stop-color="#7E1454"/>
      <stop offset="1" stop-color="#6E1FBC"/>
    </linearGradient>
    <linearGradient id="paint8_linear" x1="32.1" y1="52.3" x2="32.1" y2="65.3" gradientUnits="userSpaceOnUse">
      <stop stop-color="#7E1454"/>
      <stop offset="1" stop-color="#6E1FBC"/>
    </linearGradient>
    <linearGradient id="paint9_linear" x1="126.1" y1="57" x2="126.1" y2="63.7" gradientUnits="userSpaceOnUse">
      <stop stop-color="#7E1454"/>
      <stop offset="1" stop-color="#6E1FBC"/>
    </linearGradient>
    <linearGradient id="paint10_linear" x1="56.1" y1="57" x2="56.1" y2="63.7" gradientUnits="userSpaceOnUse">
      <stop stop-color="#7E1454"/>
      <stop offset="1" stop-color="#6E1FBC"/>
    </linearGradient>
    <filter id="filter0_d" x="68" y="11.4" width="80" height="80" filterUnits="userSpaceOnUse" color-interpolation-filters="sRGB">
      <feFlood flood-opacity="0" result="BackgroundImageFix"/>
      <feColorMatrix in="SourceAlpha" values="0 0 0 0 0 0 0 0 0 0 0 0 0 0 0 0 0 0 127 0"/>
      <feOffset/>
      <feGaussianBlur stdDeviation="2.5"/>
      <feColorMatrix values="0 0 0 0 1 0 0 0 0 0.4125 0 0 0 0 0.94125 0 0 0 1 0"/>
      <feBlend in2="BackgroundImageFix" result="effect1_dropShadow"/>
      <feBlend in="SourceGraphic" in2="effect1_dropShadow" result="shape"/>
    </filter>
    <filter id="filter1_d" x="-2" y="59" width="219.1" height="37.1" filterUnits="userSpaceOnUse" color-interpolation-filters="sRGB">
      <feFlood flood-opacity="0" result="BackgroundImageFix"/>
      <feColorMatrix in="SourceAlpha" values="0 0 0 0 0 0 0 0 0 0 0 0 0 0 0 0 0 0 127 0"/>
      <feOffset/>
      <feGaussianBlur stdDeviation="1"/>
      <feColorMatrix values="0 0 0 0 0.991667 0 0 0 0 0.533021 0 0 0 0 0.918283 0 0 0 1 0"/>
      <feBlend in2="BackgroundImageFix" result="effect1_dropShadow"/>
      <feBlend in="SourceGraphic" in2="effect1_dropShadow" result="shape"/>
    </filter>
    <filter id="filter2_d" x="-2" y="61.8" width="219" height="34.3" filterUnits="userSpaceOnUse" color-interpolation-filters="sRGB">
      <feFlood flood-opacity="0" result="BackgroundImageFix"/>
      <feColorMatrix in="SourceAlpha" values="0 0 0 0 0 0 0 0 0 0 0 0 0 0 0 0 0 0 127 0"/>
      <feOffset/>
      <feGaussianBlur stdDeviation="1"/>
      <feColorMatrix values="0 0 0 0 0.992157 0 0 0 0 0.533333 0 0 0 0 0.917647 0 0 0 1 0"/>
      <feBlend in2="BackgroundImageFix" result="effect1_dropShadow"/>
      <feBlend in="SourceGraphic" in2="effect1_dropShadow" result="shape"/>
    </filter>
    <filter id="filter3_d" x="27.6" y="73.2" width="159.8" height="20.8" filterUnits="userSpaceOnUse" color-interpolation-filters="sRGB">
      <feFlood flood-opacity="0" result="BackgroundImageFix"/>
      <feColorMatrix in="SourceAlpha" values="0 0 0 0 0 0 0 0 0 0 0 0 0 0 0 0 0 0 127 0"/>
      <feOffset/>
      <feGaussianBlur stdDeviation="1"/>
      <feColorMatrix values="0 0 0 0 0 0 0 0 0 0 0 0 0 0 0 0 0 0 0.5 0"/>
      <feBlend in2="BackgroundImageFix" result="effect1_dropShadow"/>
      <feBlend in="SourceGraphic" in2="effect1_dropShadow" result="shape"/>
    </filter>
    <clipPath id="clip0">
      <path fill="#fff" d="M0 0h215v103H0z"/>
    </clipPath>
  </defs>
</svg>